<svg height="100%" width="100%" id="svg" viewBox="0 0 1440 700" xmlns="http://www.w3.org/2000/svg" class="transition duration-300 ease-in-out delay-150"><defs><linearGradient id="gradient"><stop offset="5%" stop-color="#9900ef66"></stop><stop offset="95%" stop-color="#fcb90066"></stop></linearGradient></defs><path d="M 0,700 C 0,700 0,175 0,175 C 48.960069059070165,134.14327290664693 97.92013811814033,93.28654581329387 143,109 C 188.07986188185967,124.71345418670613 229.27951658650886,196.99708965347145 296,218 C 362.72048341349114,239.00291034652855 454.9617955358243,208.72509557282032 507,185 C 559.0382044641757,161.27490442717968 570.8733012701936,144.10252805524726 620,163 C 669.1266987298064,181.89747194475274 755.5449993834012,236.86479220619066 821,233 C 886.4550006165988,229.13520779380934 930.946701196202,166.43830311999014 981,155 C 1031.053298803798,143.56169688000986 1086.6681958317918,183.38199531384882 1135,190 C 1183.3318041682082,196.61800468615118 1224.380515476631,170.03371562461464 1274,162 C 1323.619484523369,153.96628437538536 1381.8097422616845,164.4831421876927 1440,175 C 1440,175 1440,700 1440,700 Z" stroke="none" stroke-width="0" fill="url(#gradient)" class="transition-all duration-300 ease-in-out delay-150"></path><defs><linearGradient id="gradient"><stop offset="5%" stop-color="#9900ef88"></stop><stop offset="95%" stop-color="#fcb90088"></stop></linearGradient></defs><path d="M 0,700 C 0,700 0,350 0,350 C 39.95338512763597,373.9664076951535 79.90677025527194,397.93281539030704 130,403 C 180.09322974472806,408.06718460969296 240.32630410654826,394.2351461339253 296,389 C 351.67369589345174,383.7648538660747 402.7880133185349,387.1266000739918 466,392 C 529.2119866814651,396.8733999260082 604.5216426193118,403.25845357010735 665,403 C 725.4783573806882,402.74154642989265 771.1254162042177,395.83958564557895 819,387 C 866.8745837957823,378.16041435442105 916.976692563818,367.38320384757674 961,376 C 1005.023307436182,384.61679615242326 1042.9678135405106,412.627598964114 1096,401 C 1149.0321864594894,389.372401035886 1217.1520532741397,338.10640029596743 1277,323 C 1336.8479467258603,307.89359970403257 1388.4239733629302,328.9467998520163 1440,350 C 1440,350 1440,700 1440,700 Z" stroke="none" stroke-width="0" fill="url(#gradient)" class="transition-all duration-300 ease-in-out delay-150"></path><defs><linearGradient id="gradient"><stop offset="5%" stop-color="#9900efff"></stop><stop offset="95%" stop-color="#fcb900ff"></stop></linearGradient></defs><path d="M 0,700 C 0,700 0,525 0,525 C 58.962535454433336,497.8320631397213 117.92507090886667,470.66412627944254 168,479 C 218.07492909113333,487.33587372055746 259.26225181896666,531.175558021951 311,527 C 362.73774818103334,522.824441978049 425.0259218152669,470.63364163275367 475,467 C 524.9740781847331,463.36635836724633 562.6340609199655,508.2898754470342 620,535 C 677.3659390800345,561.7101245529658 754.4378345048713,570.2068565791096 817,574 C 879.5621654951287,577.7931434208904 927.6146010605501,576.8826982365273 979,575 C 1030.38539893945,573.1173017634727 1085.103761252929,570.2623504747812 1133,550 C 1180.896238747071,529.7376495252188 1221.9703539277345,492.06789986434825 1272,485 C 1322.0296460722655,477.93210013565175 1381.0148230361328,501.4660500678259 1440,525 C 1440,525 1440,700 1440,700 Z" stroke="none" stroke-width="0" fill="url(#gradient)" class="transition-all duration-300 ease-in-out delay-150"></path></svg>